<svg width="44" height="44" viewBox="0 0 44 44" fill="none" xmlns="http://www.w3.org/2000/svg">
<path d="M30.3296 10C30.3296 10 28.7539 10 27.1534 12.4C26.3614 11.6072 23.9531 11.5997 23.1551 11.5997C22.3541 11.5997 19.9474 11.6072 19.1546 12.4C17.5541 10 15.9821 10 15.9821 10C15.1264 12.148 15.7961 13.6053 15.9574 13.9998C15.1579 14.8 14.3546 15.6003 14.3546 19.6C14.3546 23.5998 17.2631 25.606 20.7581 25.9998C20.3089 26.3905 19.9579 27.5995 19.9579 28.3997C19.0601 28.7995 16.5619 29.1835 15.1579 26.8C15.1579 26.8 14.3576 25.2003 12.7579 25.2003C12.7579 25.2003 11.1581 25.0495 12.7579 26.0005C12.7579 26.0005 13.5581 26.8008 14.3576 28.4005C14.3576 28.4005 15.5794 31.7425 19.9579 30.8005C19.9669 32.1017 19.9579 34.0007 19.9579 34.0007H26.3539V28.4005C26.3539 27.7675 26.0044 26.3905 25.5536 26.0005C29.0486 25.6067 31.9534 23.6005 31.9534 19.6007C31.9534 15.601 31.1531 14.8008 30.3536 14.0005C30.5164 13.6053 31.1846 12.148 30.3296 10Z" fill="white"/>
</svg>
