<svg width="44" height="44" viewBox="0 0 44 44" fill="none" xmlns="http://www.w3.org/2000/svg">
<path d="M30.3296 9.99963C30.3296 9.99963 28.7539 9.99963 27.1534 12.3996C26.3614 11.6069 23.9531 11.5994 23.1551 11.5994C22.3541 11.5994 19.9474 11.6069 19.1546 12.3996C17.5541 9.99963 15.9821 9.99963 15.9821 9.99963C15.1264 12.1476 15.7961 13.6049 15.9574 13.9994C15.1579 14.7996 14.3546 15.5999 14.3546 19.5996C14.3546 23.5994 17.2631 25.6056 20.7581 25.9994C20.3089 26.3901 19.9579 27.5991 19.9579 28.3994C19.0601 28.7991 16.5619 29.1831 15.1579 26.7996C15.1579 26.7996 14.3576 25.1999 12.7579 25.1999C12.7579 25.1999 11.1581 25.0491 12.7579 26.0001C12.7579 26.0001 13.5581 26.8004 14.3576 28.4001C14.3576 28.4001 15.5794 31.7421 19.9579 30.8001C19.9669 32.1014 19.9579 34.0004 19.9579 34.0004H26.3539V28.4001C26.3539 27.7671 26.0044 26.3901 25.5536 26.0001C29.0486 25.6064 31.9534 23.6001 31.9534 19.6004C31.9534 15.6006 31.1531 14.8004 30.3536 14.0001C30.5164 13.6049 31.1846 12.1476 30.3296 9.99963Z" />
</svg>
