<svg width="24" height="24" viewBox="0 0 24 24" fill="none" xmlns="http://www.w3.org/2000/svg">
<g clip-path="url(#clip0_214_11897)">
<path d="M22 14.3548C22 13.6128 21.436 13.0088 20.74 13.0088H10.676C9.98001 13.0088 9.41602 13.6128 9.41602 14.3548C9.41602 15.0968 9.97901 15.7008 10.676 15.7008H20.74C21.436 15.7018 22 15.0978 22 14.3548Z" fill="white"/>
<path d="M3.482 18.1866L7.795 22.5476C8.768 23.5266 10.113 23.9996 11.598 23.9996C13.083 23.9996 14.428 23.4876 15.403 22.5056L17.991 19.8686C18.501 19.3546 18.483 18.5036 17.952 17.9686C17.421 17.4336 16.577 17.4156 16.068 17.9296L13.392 20.5366C12.93 21.0036 12.29 21.1986 11.583 21.1986C10.876 21.1986 10.237 21.0036 9.773 20.5366L5.475 16.1736C5.012 15.7066 4.779 15.0236 4.779 14.3106C4.779 13.5976 5.012 12.9536 5.475 12.4866L9.76 8.10662C10.223 7.63962 10.876 7.46162 11.582 7.46162C12.288 7.46162 12.928 7.65662 13.391 8.12362L16.067 10.7296C16.577 11.2446 17.421 11.2266 17.952 10.6916C18.483 10.1556 18.501 9.30462 17.991 8.79062L15.403 6.15462C14.754 5.50862 13.932 5.03862 13.011 4.82462L12.977 4.81762L15.424 2.31462C15.936 1.80062 15.918 0.948622 15.387 0.413622C14.856 -0.121378 14.011 -0.138378 13.5 0.375622L3.482 10.4756C2.509 11.4576 2 12.8126 2 14.3106C2 15.8086 2.509 17.2066 3.482 18.1866Z" fill="white"/>
</g>
<defs>
<clipPath id="clip0_214_11897">
<rect width="24" height="24" fill="white"/>
</clipPath>
</defs>
</svg>
