<svg width="44" height="44" viewBox="0 0 44 44" fill="none" xmlns="http://www.w3.org/2000/svg">
<g clip-path="url(#clip0_2044_7142)">
<path d="M32 21.355C32 20.613 31.436 20.009 30.74 20.009H20.676C19.98 20.009 19.416 20.613 19.416 21.355C19.416 22.097 19.979 22.701 20.676 22.701H30.74C31.436 22.702 32 22.098 32 21.355Z" />
<path d="M13.482 25.187L17.795 29.548C18.768 30.527 20.113 31 21.598 31C23.083 31 24.428 30.488 25.403 29.506L27.991 26.869C28.501 26.355 28.483 25.504 27.952 24.969C27.421 24.434 26.577 24.416 26.068 24.93L23.392 27.537C22.93 28.004 22.29 28.199 21.583 28.199C20.876 28.199 20.237 28.004 19.773 27.537L15.475 23.174C15.012 22.707 14.779 22.024 14.779 21.311C14.779 20.598 15.012 19.954 15.475 19.487L19.76 15.107C20.223 14.64 20.876 14.462 21.582 14.462C22.288 14.462 22.928 14.657 23.391 15.124L26.067 17.73C26.577 18.245 27.421 18.227 27.952 17.692C28.483 17.156 28.501 16.305 27.991 15.791L25.403 13.155C24.754 12.509 23.932 12.039 23.011 11.825L22.977 11.818L25.424 9.315C25.936 8.801 25.918 7.949 25.387 7.414C24.856 6.879 24.011 6.862 23.5 7.376L13.482 17.476C12.509 18.458 12 19.813 12 21.311C12 22.809 12.509 24.207 13.482 25.187Z" />
</g>
<defs>
<clipPath id="clip0_2044_7142">
<rect width="24" height="24" fill="white" transform="translate(10 7)"/>
</clipPath>
</defs>
</svg>
