<svg width="44" height="44" viewBox="0 0 44 44" fill="none" xmlns="http://www.w3.org/2000/svg">
<path d="M10 13.1973C10 12.4251 10.2703 11.7881 10.8108 11.2862C11.3513 10.7843 12.0541 10.5334 12.9189 10.5334C13.7683 10.5334 14.4556 10.7804 14.9807 11.2746C15.5212 11.7843 15.7915 12.4483 15.7915 13.2668C15.7915 14.0081 15.529 14.6258 15.0039 15.12C14.4633 15.6296 13.7529 15.8845 12.8726 15.8845H12.8494C12 15.8845 11.3127 15.6296 10.7876 15.12C10.2625 14.6104 10 13.9695 10 13.1973ZM10.3012 33.4667V17.9925H15.444V33.4667H10.3012ZM18.2934 33.4667H23.4363V24.8261C23.4363 24.2856 23.4981 23.8686 23.6216 23.5752C23.8378 23.0501 24.166 22.6061 24.6062 22.2432C25.0463 21.8803 25.5984 21.6989 26.2625 21.6989C27.9923 21.6989 28.8571 22.8648 28.8571 25.1968V33.4667H34V24.5945C34 22.3089 33.4595 20.5754 32.3784 19.3939C31.2973 18.2125 29.8687 17.6218 28.0927 17.6218C26.1004 17.6218 24.5483 18.4789 23.4363 20.1931V20.2395H23.4131L23.4363 20.1931V17.9925H18.2934C18.3243 18.4866 18.3398 20.0232 18.3398 22.6023C18.3398 25.1813 18.3243 28.8028 18.2934 33.4667Z" />
</svg>
