<svg width="44" height="44" viewBox="0 0 44 44" fill="none" xmlns="http://www.w3.org/2000/svg">
<path d="M21.9991 21.1075L31.5841 14.95C31.1987 14.661 30.7308 14.5032 30.2491 14.5H13.7491C13.2674 14.5032 12.7994 14.661 12.4141 14.95L21.9991 21.1075Z" fill="#B3B2AE"/>
<path d="M22.405 22.63L22.2775 22.69H22.2175C22.1484 22.7209 22.0751 22.7411 22 22.75C21.9377 22.7578 21.8748 22.7578 21.8125 22.75H21.7525L21.625 22.69L11.575 16.195C11.527 16.3762 11.5018 16.5626 11.5 16.75V27.25C11.5 27.8467 11.7371 28.419 12.159 28.841C12.581 29.2629 13.1533 29.5 13.75 29.5H30.25C30.8467 29.5 31.419 29.2629 31.841 28.841C32.2629 28.419 32.5 27.8467 32.5 27.25V16.75C32.4982 16.5626 32.473 16.3762 32.425 16.195L22.405 22.63Z" fill="#B3B2AE"/>
</svg>
