<svg width="12" height="12" viewBox="0 0 12 12" fill="none" xmlns="http://www.w3.org/2000/svg">
<path d="M2.65043 11.1353L9.7215 4.06423L9.72149 8.71699C9.72095 8.849 9.74655 8.97982 9.79682 9.10188C9.84709 9.22395 9.92103 9.33485 10.0144 9.4282C10.1077 9.52155 10.2186 9.59549 10.3407 9.64576C10.4628 9.69602 10.5936 9.72163 10.7256 9.72108C10.9898 9.7203 11.2429 9.615 11.4297 9.4282C11.6165 9.24139 11.7218 8.98825 11.7226 8.72406L11.7155 2.65002C11.7171 2.12044 11.5086 1.61185 11.1357 1.23581C10.7603 0.867237 10.2547 0.661456 9.72857 0.663053L3.65453 0.655985C3.52313 0.656449 3.39311 0.682789 3.2719 0.733501C3.15068 0.784213 3.04064 0.858302 2.94806 0.951541C2.85548 1.04478 2.78217 1.15534 2.73232 1.27691C2.68246 1.39848 2.65704 1.52868 2.65751 1.66008C2.65797 1.79147 2.68431 1.92149 2.73502 2.0427C2.78573 2.16392 2.85982 2.27396 2.95306 2.36654C3.0463 2.45912 3.15686 2.53243 3.27843 2.58229C3.4 2.63214 3.5302 2.65756 3.6616 2.6571L8.30728 2.65002L1.23622 9.72109C1.04868 9.90863 0.943323 10.163 0.943323 10.4282C0.943323 10.6934 1.04868 10.9478 1.23622 11.1353C1.42375 11.3228 1.6781 11.4282 1.94332 11.4282C2.20854 11.4282 2.46289 11.3228 2.65043 11.1353Z" fill="#FABD04"/>
</svg>
