<svg width="12" height="12" viewBox="0 0 12 12" fill="none" xmlns="http://www.w3.org/2000/svg">
<path d="M2.65043 11.1355L9.7215 4.06439L9.72149 8.71715C9.72095 8.84916 9.74655 8.97997 9.79682 9.10203C9.84709 9.2241 9.92103 9.33501 10.0144 9.42835C10.1077 9.5217 10.2186 9.59564 10.3407 9.64591C10.4628 9.69618 10.5936 9.72178 10.7256 9.72124C10.9898 9.72045 11.2429 9.61516 11.4297 9.42835C11.6165 9.24154 11.7218 8.9884 11.7226 8.72422L11.7155 2.65017C11.7171 2.12059 11.5086 1.61201 11.1357 1.23596C10.7603 0.86739 10.2547 0.661608 9.72857 0.663206L3.65453 0.656138C3.52313 0.656602 3.39311 0.682942 3.2719 0.733653C3.15068 0.784365 3.04064 0.858455 2.94806 0.951694C2.85548 1.04493 2.78217 1.15549 2.73232 1.27706C2.68246 1.39864 2.65704 1.52883 2.65751 1.66023C2.65797 1.79162 2.68431 1.92164 2.73502 2.04286C2.78573 2.16407 2.85982 2.27411 2.95306 2.36669C3.0463 2.45928 3.15686 2.53259 3.27843 2.58244C3.4 2.63229 3.5302 2.65771 3.6616 2.65725L8.30728 2.65018L1.23622 9.72124C1.04868 9.90878 0.943323 10.1631 0.943323 10.4283C0.943323 10.6936 1.04868 10.9479 1.23622 11.1355C1.42375 11.323 1.6781 11.4283 1.94332 11.4283C2.20854 11.4283 2.46289 11.323 2.65043 11.1355Z" fill="white"/>
</svg>
