<svg width="20" height="20" viewBox="0 0 20 20" fill="none" xmlns="http://www.w3.org/2000/svg">
<g clip-path="url(#clip0_2112_384)">
<path d="M5.83333 0H3.33333C2.44928 0 1.60143 0.35119 0.976311 0.976311C0.35119 1.60143 0 2.44928 0 3.33333L0 5.83333C0 6.71739 0.35119 7.56524 0.976311 8.19036C1.60143 8.81548 2.44928 9.16667 3.33333 9.16667H5.83333C6.71739 9.16667 7.56524 8.81548 8.19036 8.19036C8.81548 7.56524 9.16667 6.71739 9.16667 5.83333V3.33333C9.16667 2.44928 8.81548 1.60143 8.19036 0.976311C7.56524 0.35119 6.71739 0 5.83333 0V0ZM7.5 5.83333C7.5 6.27536 7.32441 6.69928 7.01184 7.01184C6.69928 7.32441 6.27536 7.5 5.83333 7.5H3.33333C2.89131 7.5 2.46738 7.32441 2.15482 7.01184C1.84226 6.69928 1.66667 6.27536 1.66667 5.83333V3.33333C1.66667 2.89131 1.84226 2.46738 2.15482 2.15482C2.46738 1.84226 2.89131 1.66667 3.33333 1.66667H5.83333C6.27536 1.66667 6.69928 1.84226 7.01184 2.15482C7.32441 2.46738 7.5 2.89131 7.5 3.33333V5.83333Z" fill="#FABD04"/>
<path d="M16.6673 0H14.1673C13.2833 0 12.4354 0.35119 11.8103 0.976311C11.1852 1.60143 10.834 2.44928 10.834 3.33334V5.83334C10.834 6.71739 11.1852 7.56524 11.8103 8.19036C12.4354 8.81548 13.2833 9.16667 14.1673 9.16667H16.6673C17.5514 9.16667 18.3992 8.81548 19.0243 8.19036C19.6494 7.56524 20.0006 6.71739 20.0006 5.83334V3.33334C20.0006 2.44928 19.6494 1.60143 19.0243 0.976311C18.3992 0.35119 17.5514 0 16.6673 0V0ZM18.334 5.83334C18.334 6.27537 18.1584 6.69929 17.8458 7.01185C17.5333 7.32441 17.1093 7.50001 16.6673 7.50001H14.1673C13.7253 7.50001 13.3014 7.32441 12.9888 7.01185C12.6762 6.69929 12.5006 6.27537 12.5006 5.83334V3.33334C12.5006 2.89131 12.6762 2.46738 12.9888 2.15482C13.3014 1.84226 13.7253 1.66667 14.1673 1.66667H16.6673C17.1093 1.66667 17.5333 1.84226 17.8458 2.15482C18.1584 2.46738 18.334 2.89131 18.334 3.33334V5.83334Z" fill="#FABD04"/>
<path d="M5.83333 10.833H3.33333C2.44928 10.833 1.60143 11.1842 0.976311 11.8093C0.35119 12.4344 0 13.2823 0 14.1663L0 16.6663C0 17.5504 0.35119 18.3983 0.976311 19.0234C1.60143 19.6485 2.44928 19.9997 3.33333 19.9997H5.83333C6.71739 19.9997 7.56524 19.6485 8.19036 19.0234C8.81548 18.3983 9.16667 17.5504 9.16667 16.6663V14.1663C9.16667 13.2823 8.81548 12.4344 8.19036 11.8093C7.56524 11.1842 6.71739 10.833 5.83333 10.833ZM7.5 16.6663C7.5 17.1084 7.32441 17.5323 7.01184 17.8449C6.69928 18.1574 6.27536 18.333 5.83333 18.333H3.33333C2.89131 18.333 2.46738 18.1574 2.15482 17.8449C1.84226 17.5323 1.66667 17.1084 1.66667 16.6663V14.1663C1.66667 13.7243 1.84226 13.3004 2.15482 12.9878C2.46738 12.6753 2.89131 12.4997 3.33333 12.4997H5.83333C6.27536 12.4997 6.69928 12.6753 7.01184 12.9878C7.32441 13.3004 7.5 13.7243 7.5 14.1663V16.6663Z" fill="#FABD04"/>
<path d="M16.6673 10.833H14.1673C13.2833 10.833 12.4354 11.1842 11.8103 11.8093C11.1852 12.4344 10.834 13.2823 10.834 14.1663V16.6663C10.834 17.5504 11.1852 18.3983 11.8103 19.0234C12.4354 19.6485 13.2833 19.9997 14.1673 19.9997H16.6673C17.5514 19.9997 18.3992 19.6485 19.0243 19.0234C19.6494 18.3983 20.0006 17.5504 20.0006 16.6663V14.1663C20.0006 13.2823 19.6494 12.4344 19.0243 11.8093C18.3992 11.1842 17.5514 10.833 16.6673 10.833ZM18.334 16.6663C18.334 17.1084 18.1584 17.5323 17.8458 17.8449C17.5333 18.1574 17.1093 18.333 16.6673 18.333H14.1673C13.7253 18.333 13.3014 18.1574 12.9888 17.8449C12.6762 17.5323 12.5006 17.1084 12.5006 16.6663V14.1663C12.5006 13.7243 12.6762 13.3004 12.9888 12.9878C13.3014 12.6753 13.7253 12.4997 14.1673 12.4997H16.6673C17.1093 12.4997 17.5333 12.6753 17.8458 12.9878C18.1584 13.3004 18.334 13.7243 18.334 14.1663V16.6663Z" fill="#FABD04"/>
</g>
<defs>
<clipPath id="clip0_2112_384">
<rect width="20" height="20" fill="white"/>
</clipPath>
</defs>
</svg>
