<svg width="25" height="25" viewBox="0 0 25 25" fill="none" xmlns="http://www.w3.org/2000/svg">
<g clip-path="url(#clip0_2112_12)">
<path d="M14.7982 17.2835L11.5362 20.5455C10.5891 21.4673 9.31718 21.9791 7.99562 21.9703C6.67406 21.9614 5.40912 21.4326 4.47448 20.4982C3.53984 19.5638 3.01066 18.2991 3.00143 16.9775C2.99221 15.6559 3.50367 14.3839 4.42517 13.4365L7.68717 10.1716C7.87468 9.98391 7.97997 9.72947 7.97987 9.4642C7.97978 9.19893 7.87431 8.94457 7.68667 8.75706C7.49903 8.56955 7.24459 8.46426 6.97932 8.46436C6.71405 8.46445 6.45968 8.56992 6.27217 8.75756L3.01117 12.0226C1.69344 13.3409 0.953412 15.1288 0.953881 16.9928C0.954349 18.8568 1.69528 20.6443 3.01367 21.962C4.33206 23.2798 6.11992 24.0198 7.98394 24.0193C9.84795 24.0188 11.6354 23.2779 12.9532 21.9595L16.2152 18.6975C16.3973 18.5089 16.4981 18.2563 16.4958 17.9941C16.4936 17.7319 16.3884 17.4811 16.203 17.2957C16.0176 17.1103 15.7668 17.0051 15.5046 17.0029C15.2424 17.0006 14.9898 17.1014 14.8012 17.2835H14.7982Z" fill="white"/>
<path d="M22.8972 2.07811C22.2465 1.42293 21.4722 0.903393 20.6193 0.549611C19.7663 0.195828 18.8516 0.0148334 17.9282 0.0171145C17.0053 0.0146628 16.091 0.195193 15.2383 0.548266C14.3856 0.901339 13.6113 1.41995 12.9602 2.07411L9.69323 5.33712C9.50559 5.52462 9.40012 5.77899 9.40002 6.04426C9.39993 6.30953 9.50522 6.56397 9.69273 6.75162C9.88024 6.93926 10.1346 7.04472 10.3999 7.04482C10.6651 7.04491 10.9196 6.93962 11.1072 6.75212L14.3722 3.49011C14.8378 3.02176 15.3916 2.65042 16.0017 2.39757C16.6117 2.14473 17.2659 2.01542 17.9262 2.01711C18.9205 2.01744 19.8923 2.31255 20.7189 2.86511C21.5455 3.41768 22.1897 4.20291 22.5701 5.12153C22.9504 6.04016 23.0499 7.05094 22.8559 8.02609C22.662 9.00125 22.1832 9.897 21.4802 10.6001L18.2182 13.8621C18.0306 14.0498 17.9252 14.3043 17.9252 14.5696C17.9252 14.835 18.0306 15.0895 18.2182 15.2771C18.4059 15.4648 18.6604 15.5702 18.9257 15.5702C19.1911 15.5702 19.4456 15.4648 19.6332 15.2771L22.8952 12.0171C24.2113 10.6982 24.9505 8.91122 24.9509 7.04803C24.9513 5.18484 24.2127 3.39755 22.8972 2.07811Z" fill="white"/>
<path d="M15.2463 8.30976L9.24633 14.3098C9.15082 14.402 9.07464 14.5123 9.02223 14.6343C8.96982 14.7564 8.94223 14.8876 8.94108 15.0203C8.93992 15.1531 8.96523 15.2848 9.01551 15.4077C9.06579 15.5306 9.14004 15.6423 9.23393 15.7361C9.32783 15.83 9.43948 15.9043 9.56237 15.9546C9.68527 16.0049 9.81695 16.0302 9.94973 16.029C10.0825 16.0278 10.2137 16.0003 10.3357 15.9479C10.4577 15.8954 10.5681 15.8193 10.6603 15.7237L16.6603 9.72376C16.8425 9.53516 16.9433 9.28256 16.941 9.02036C16.9387 8.75817 16.8336 8.50735 16.6481 8.32195C16.4627 8.13654 16.2119 8.03137 15.9497 8.02909C15.6875 8.02681 15.4349 8.12761 15.2463 8.30976Z" fill="white"/>
</g>
<defs>
<clipPath id="clip0_2112_12">
<rect width="24" height="24" fill="white" transform="translate(0.953125 0.0166016)"/>
</clipPath>
</defs>
</svg>
