<svg width="24" height="24" viewBox="0 0 24 24" fill="none" xmlns="http://www.w3.org/2000/svg">
<g clip-path="url(#clip0_175_7550)">
<path d="M13.8443 17.2665L10.5823 20.5284C9.63521 21.4502 8.3633 21.962 7.04174 21.9532C5.72018 21.9443 4.45524 21.4155 3.5206 20.4811C2.58596 19.5467 2.05678 18.282 2.04755 16.9604C2.03833 15.6388 2.54979 14.3668 3.47129 13.4195L6.73329 10.1545C6.9208 9.96682 7.02608 9.71238 7.02599 9.44711C7.0259 9.18184 6.92043 8.92748 6.73279 8.73997C6.54515 8.55246 6.29071 8.44717 6.02544 8.44727C5.76017 8.44736 5.5058 8.55283 5.31829 8.74047L2.05729 12.0055C0.73956 13.3238 -0.000468632 15.1117 2.22651e-07 16.9757C0.000469078 18.8397 0.741397 20.6272 2.05979 21.9449C3.37818 23.2627 5.16604 24.0027 7.03006 24.0022C8.89407 24.0018 10.6816 23.2608 11.9993 21.9424L15.2613 18.6804C15.4434 18.4918 15.5442 18.2392 15.542 17.977C15.5397 17.7149 15.4345 17.464 15.2491 17.2786C15.0637 17.0932 14.8129 16.9881 14.5507 16.9858C14.2885 16.9835 14.0359 17.0843 13.8473 17.2665H13.8443Z" fill="#FABD04"/>
<path d="M21.9445 2.06102C21.2938 1.40584 20.5195 0.886303 19.6665 0.532521C18.8136 0.178738 17.8989 -0.00225646 16.9755 2.46408e-05C16.0525 -0.00242709 15.1383 0.178103 14.2855 0.531176C13.4328 0.884249 12.6585 1.40286 12.0075 2.05702L8.74047 5.32003C8.55283 5.50753 8.44736 5.7619 8.44727 6.02717C8.44717 6.29244 8.55246 6.54689 8.73997 6.73453C8.92748 6.92217 9.18184 7.02763 9.44712 7.02773C9.71239 7.02782 9.96683 6.92253 10.1545 6.73503L13.4195 3.47303C13.885 3.00467 14.4389 2.63333 15.0489 2.38048C15.659 2.12764 16.3131 1.99833 16.9735 2.00002C17.9677 2.00035 18.9396 2.29546 19.7662 2.84802C20.5927 3.40059 21.2369 4.18582 21.6173 5.10444C21.9977 6.02307 22.0972 7.03385 21.9032 8.009C21.7092 8.98416 21.2305 9.87991 20.5275 10.583L17.2655 13.845C17.0778 14.0327 16.9724 14.2872 16.9724 14.5525C16.9724 14.8179 17.0778 15.0724 17.2655 15.26C17.4531 15.4477 17.7076 15.5531 17.973 15.5531C18.2383 15.5531 18.4928 15.4477 18.6805 15.26L21.9425 12C23.2585 10.6811 23.9978 8.89413 23.9982 7.03094C23.9985 5.16775 23.26 3.38046 21.9445 2.06102Z" fill="#FABD04"/>
<path d="M14.2936 8.29341L8.29357 14.2934C8.19806 14.3856 8.12188 14.496 8.06947 14.618C8.01706 14.74 7.98947 14.8712 7.98832 15.004C7.98717 15.1368 8.01247 15.2685 8.06275 15.3913C8.11303 15.5142 8.18728 15.6259 8.28117 15.7198C8.37507 15.8137 8.48672 15.8879 8.60962 15.9382C8.73251 15.9885 8.86419 16.0138 8.99697 16.0126C9.12975 16.0115 9.26097 15.9839 9.38297 15.9315C9.50498 15.8791 9.61532 15.8029 9.70757 15.7074L15.7076 9.7074C15.8897 9.5188 15.9905 9.2662 15.9882 9.004C15.986 8.74181 15.8808 8.491 15.6954 8.30559C15.51 8.12018 15.2592 8.01501 14.997 8.01273C14.7348 8.01045 14.4822 8.11125 14.2936 8.29341Z" fill="#FABD04"/>
</g>
<defs>
<clipPath id="clip0_175_7550">
<rect width="24" height="24" fill="white"/>
</clipPath>
</defs>
</svg>
