<svg width="25" height="24" viewBox="0 0 25 24" fill="none" xmlns="http://www.w3.org/2000/svg">
<g clip-path="url(#clip0_2112_2800)">
<path d="M10.3792 18.122C10.6578 18.4008 10.9886 18.6219 11.3527 18.7728C11.7168 18.9237 12.1071 19.0014 12.5012 19.0014C12.8953 19.0014 13.2856 18.9237 13.6497 18.7728C14.0138 18.6219 14.3446 18.4008 14.6232 18.122L17.8342 14.911C18.0064 14.7206 18.0987 14.4713 18.0921 14.2147C18.0855 13.958 17.9805 13.7138 17.7988 13.5325C17.6171 13.3512 17.3726 13.2467 17.116 13.2406C16.8594 13.2346 16.6102 13.3274 16.4202 13.5L13.4942 16.427L13.5012 1C13.5012 0.734784 13.3958 0.48043 13.2083 0.292893C13.0208 0.105357 12.7664 0 12.5012 0V0C12.236 0 11.9816 0.105357 11.7941 0.292893C11.6066 0.48043 11.5012 0.734784 11.5012 1L11.4922 16.408L8.5822 13.5C8.39456 13.3125 8.14012 13.2072 7.87485 13.2073C7.60958 13.2074 7.35521 13.3129 7.1677 13.5005C6.98019 13.6881 6.87491 13.9426 6.875 14.2079C6.87509 14.4731 6.98056 14.7275 7.1682 14.915L10.3792 18.122Z" fill="#FABD04"/>
<path d="M23.5 15.9998C23.2348 15.9998 22.9804 16.1051 22.7929 16.2926C22.6054 16.4802 22.5 16.7345 22.5 16.9998V20.9997C22.5 21.265 22.3946 21.5193 22.2071 21.7069C22.0196 21.8944 21.7652 21.9997 21.5 21.9997H3.5C3.23478 21.9997 2.98043 21.8944 2.79289 21.7069C2.60536 21.5193 2.5 21.265 2.5 20.9997V16.9998C2.5 16.7345 2.39464 16.4802 2.20711 16.2926C2.01957 16.1051 1.76522 15.9998 1.5 15.9998C1.23478 15.9998 0.98043 16.1051 0.792893 16.2926C0.605357 16.4802 0.5 16.7345 0.5 16.9998L0.5 20.9997C0.5 21.7954 0.81607 22.5585 1.37868 23.1211C1.94129 23.6837 2.70435 23.9997 3.5 23.9997H21.5C22.2956 23.9997 23.0587 23.6837 23.6213 23.1211C24.1839 22.5585 24.5 21.7954 24.5 20.9997V16.9998C24.5 16.7345 24.3946 16.4802 24.2071 16.2926C24.0196 16.1051 23.7652 15.9998 23.5 15.9998Z" fill="#FABD04"/>
</g>
<defs>
<clipPath id="clip0_2112_2800">
<rect width="24" height="24" fill="white" transform="translate(0.5)"/>
</clipPath>
</defs>
</svg>
