<svg width="24" height="24" viewBox="0 0 24 24" fill="none" xmlns="http://www.w3.org/2000/svg">
<g clip-path="url(#clip0_2058_5076)">
<path d="M9.87725 18.122C10.1559 18.4008 10.4867 18.6219 10.8508 18.7728C11.2149 18.9237 11.6051 19.0014 11.9992 19.0014C12.3934 19.0014 12.7836 18.9237 13.1477 18.7728C13.5118 18.6219 13.8426 18.4008 14.1212 18.122L17.3322 14.911C17.5044 14.7206 17.5968 14.4713 17.5902 14.2147C17.5836 13.958 17.4786 13.7138 17.2969 13.5325C17.1151 13.3512 16.8707 13.2467 16.614 13.2406C16.3574 13.2346 16.1083 13.3274 15.9182 13.5L12.9922 16.427L12.9992 1C12.9992 0.734784 12.8939 0.48043 12.7064 0.292893C12.5188 0.105357 12.2645 0 11.9992 0V0C11.734 0 11.4797 0.105357 11.2921 0.292893C11.1046 0.48043 10.9992 0.734784 10.9992 1L10.9902 16.408L8.08025 13.5C7.89261 13.3125 7.63817 13.2072 7.3729 13.2073C7.10763 13.2074 6.85326 13.3129 6.66575 13.5005C6.47824 13.6881 6.37295 13.9426 6.37305 14.2079C6.37314 14.4731 6.47861 14.7275 6.66625 14.915L9.87725 18.122Z" fill="#202124"/>
<path d="M23 15.9998C22.7348 15.9998 22.4804 16.1052 22.2929 16.2927C22.1054 16.4803 22 16.7346 22 16.9998V20.9998C22 21.2651 21.8946 21.5194 21.7071 21.7069C21.5196 21.8945 21.2652 21.9998 21 21.9998H3C2.73478 21.9998 2.48043 21.8945 2.29289 21.7069C2.10536 21.5194 2 21.2651 2 20.9998V16.9998C2 16.7346 1.89464 16.4803 1.70711 16.2927C1.51957 16.1052 1.26522 15.9998 1 15.9998C0.734784 15.9998 0.48043 16.1052 0.292893 16.2927C0.105357 16.4803 0 16.7346 0 16.9998L0 20.9998C0 21.7955 0.31607 22.5585 0.87868 23.1212C1.44129 23.6838 2.20435 23.9998 3 23.9998H21C21.7956 23.9998 22.5587 23.6838 23.1213 23.1212C23.6839 22.5585 24 21.7955 24 20.9998V16.9998C24 16.7346 23.8946 16.4803 23.7071 16.2927C23.5196 16.1052 23.2652 15.9998 23 15.9998Z" fill="#202124"/>
</g>
<defs>
<clipPath id="clip0_2058_5076">
<rect width="24" height="24" fill="white"/>
</clipPath>
</defs>
</svg>
