<svg width="44" height="44" viewBox="0 0 44 44" fill="none" xmlns="http://www.w3.org/2000/svg">
<g clip-path="url(#clip0_2044_5030)">
<path d="M15.6504 30.1355L22.7215 23.0644L22.7215 27.7172C22.721 27.8492 22.7466 27.98 22.7968 28.1021C22.8471 28.2241 22.921 28.335 23.0144 28.4284C23.1077 28.5217 23.2186 28.5957 23.3407 28.6459C23.4628 28.6962 23.5936 28.7218 23.7256 28.7213C23.9898 28.7205 24.2429 28.6152 24.4297 28.4284C24.6165 28.2416 24.7218 27.9884 24.7226 27.7242L24.7155 21.6502C24.7171 21.1206 24.5086 20.612 24.1357 20.236C23.7603 19.8674 23.2547 19.6616 22.7286 19.6632L16.6545 19.6562C16.5231 19.6566 16.3931 19.683 16.2719 19.7337C16.1507 19.7844 16.0406 19.8585 15.9481 19.9517C15.8555 20.045 15.7822 20.1555 15.7323 20.2771C15.6825 20.3987 15.657 20.5289 15.6575 20.6603C15.658 20.7917 15.6843 20.9217 15.735 21.0429C15.7857 21.1641 15.8598 21.2741 15.9531 21.3667C16.0463 21.4593 16.1569 21.5326 16.2784 21.5825C16.4 21.6323 16.5302 21.6577 16.6616 21.6573L21.3073 21.6502L14.2362 28.7213C14.0487 28.9088 13.9433 29.1632 13.9433 29.4284C13.9433 29.6936 14.0487 29.9479 14.2362 30.1355C14.4238 30.323 14.6781 30.4284 14.9433 30.4284C15.2085 30.4284 15.4629 30.323 15.6504 30.1355Z" fill="white"/>
</g>
<defs>
<clipPath id="clip0_2044_5030">
<rect width="24" height="24" fill="white" transform="translate(10 10)"/>
</clipPath>
</defs>
</svg>
