<svg width="185" height="42" viewBox="0 0 185 42" fill="none" xmlns="http://www.w3.org/2000/svg">
<path d="M38.8094 12.1417C38.3936 12.5627 36.9791 14.289 35.6482 15.9311L33.2354 18.9206L30.1158 16.8575C22.2957 11.6785 14.7667 11.0048 7.27936 14.7522C3.32772 16.7311 0 19.468 0 20.7732C0 22.2048 4.82519 26.5838 8.36088 28.3522C12.6453 30.4996 16.389 31.0469 20.4654 30.2048C24.2923 29.4048 27.4536 27.9311 30.8229 25.3627L33.402 23.4259L36.3551 26.668C39.2671 29.9101 40.1406 30.3732 41.0971 29.4048C42.054 28.4364 41.5963 27.5522 38.6847 24.3101L35.7312 21.1101L38.4766 17.8259C41.5548 14.1206 42.0955 12.8153 40.9723 11.9311C39.9325 11.2154 39.6415 11.2154 38.8094 12.1417ZM19.7999 16.0575C22.4205 16.5206 28.5767 19.3417 29.6998 20.6048C30.3654 21.3627 30.3238 21.4469 28.8679 22.668C26.5801 24.6048 22.5868 26.4154 19.4671 27.0048C17.0961 27.4259 16.3058 27.4259 13.9348 26.8364C10.9814 26.0785 7.82013 24.3943 5.44914 22.3312C4.03484 21.1101 4.03484 21.068 4.78358 20.2259C5.86509 19.0469 11.023 16.5206 13.3109 16.0575C15.973 15.5522 16.9713 15.5522 19.7999 16.0575Z" fill="white"/>
<path d="M55.4727 11.477C55.4727 11.0724 55.614 10.727 55.8969 10.4408C56.1893 10.1447 56.5355 9.9967 56.9352 9.9967C57.3348 9.9967 57.6761 10.1447 57.9588 10.4408C58.2514 10.727 58.3974 11.0724 58.3974 11.477V22.0609L64.3202 15.829C64.5932 15.5132 64.9488 15.3553 65.3878 15.3553C65.7874 15.3553 66.1287 15.5033 66.4114 15.7993C66.7037 16.0855 66.85 16.4309 66.85 16.8355C66.85 17.25 66.7087 17.6003 66.426 17.8865L61.6878 22.875L66.6747 29.5066C66.8793 29.7632 66.9816 30.0691 66.9816 30.4244C66.9816 30.829 66.8353 31.1793 66.543 31.4753C66.2601 31.7615 65.9191 31.9045 65.5191 31.9045C65.3145 31.9045 65.1001 31.8404 64.8758 31.7122C64.6515 31.5938 64.4762 31.4556 64.3492 31.2977L59.6406 25.0214L58.3974 26.324V30.3799C58.3974 30.7846 58.2514 31.1349 57.9588 31.4309C57.6761 31.7173 57.3348 31.8603 56.9352 31.8603C56.5355 31.8603 56.1893 31.7173 55.8969 31.4309C55.614 31.1349 55.4727 30.7846 55.4727 30.3799V11.477ZM79.2194 15.2961C79.9407 15.2961 80.6426 15.4441 81.3252 15.7402C82.0175 16.0263 82.6315 16.3914 83.1677 16.8355C83.7137 17.2697 84.1183 17.7188 84.3816 18.1826L84.5423 16.7615C84.5423 16.3569 84.6593 16.0115 84.8933 15.7253C85.1272 15.4293 85.4442 15.2813 85.8438 15.2813C86.2435 15.2813 86.5848 15.4293 86.8674 15.7253C87.1601 16.0115 87.3064 16.3569 87.3064 16.7615V16.7911L87.2771 30.4984C87.2771 30.903 87.1307 31.2533 86.8384 31.5493C86.5555 31.8354 86.2145 31.9787 85.8145 31.9787C85.4149 31.9787 85.0982 31.8354 84.8643 31.5493C84.6303 31.2533 84.5133 30.903 84.5133 30.4984L84.3523 29.3141C83.8453 30.1925 83.1044 30.8487 82.1295 31.2829C81.1546 31.7072 80.1747 31.9194 79.1901 31.9194C78.0885 31.9194 77.0549 31.7024 76.09 31.2681C75.1248 30.824 74.2765 30.2171 73.5452 29.4474C72.8143 28.6776 72.239 27.7944 71.8197 26.7977C71.4104 25.801 71.2055 24.75 71.2055 23.6447C71.2055 22.5493 71.4054 21.5033 71.8051 20.5066C72.2147 19.5 72.78 18.6069 73.5016 17.8273C74.2325 17.0378 75.0808 16.4211 76.046 15.977C77.0209 15.523 78.0788 15.2961 79.2194 15.2961ZM84.2646 23.6151C84.2646 22.6481 84.0403 21.7599 83.5917 20.9507C83.1531 20.1414 82.5535 19.4902 81.7932 18.9967C81.0326 18.5033 80.165 18.2566 79.1901 18.2566C78.2348 18.2566 77.3719 18.5033 76.6017 18.9967C75.8314 19.4902 75.2221 20.1464 74.7738 20.9655C74.3252 21.7747 74.1012 22.653 74.1012 23.6003C74.1012 24.5576 74.3302 25.4457 74.7885 26.2648C75.2464 27.074 75.8607 27.7253 76.631 28.2188C77.4109 28.7122 78.2688 28.9589 79.2048 28.9589C80.1407 28.9589 80.9889 28.7122 81.7492 28.2188C82.5195 27.7253 83.1288 27.074 83.5774 26.2648C84.0353 25.4457 84.2646 24.5625 84.2646 23.6151ZM94.8206 12.7204C94.8206 12.3158 94.9619 11.9704 95.2445 11.6842C95.5275 11.3882 95.8735 11.2402 96.2828 11.2402C96.6827 11.2402 97.0237 11.3882 97.3067 11.6842C97.599 11.9704 97.7453 12.3158 97.7453 12.7204V15.6661H99.7048C100.085 15.6661 100.412 15.8043 100.685 16.0806C100.958 16.3569 101.094 16.6875 101.094 17.0724C101.094 17.4572 100.958 17.7878 100.685 18.0641C100.412 18.3405 100.085 18.4786 99.7048 18.4786H97.7307L97.716 27.6414V27.6711C97.716 28.1546 97.7696 28.4902 97.877 28.6776C97.9843 28.8553 98.2036 28.9441 98.5349 28.9441C98.9542 28.9441 99.3245 28.8306 99.6465 28.6036C99.7635 28.5247 99.9048 28.4556 100.07 28.3964C100.236 28.3273 100.397 28.2928 100.553 28.2928C100.953 28.2928 101.294 28.4359 101.577 28.722C101.869 29.0082 102.015 29.3536 102.015 29.7582C102.015 30.2418 101.82 30.6316 101.43 30.9276C101.06 31.2138 100.636 31.4507 100.158 31.6383C99.6805 31.8256 99.1685 31.9194 98.6226 31.9194C97.3943 31.9194 96.4487 31.5395 95.7858 30.7796C95.1229 30.0099 94.7912 29.0526 94.7912 27.9079V27.7747L94.8059 18.4934H92.9194C92.5391 18.4934 92.2128 18.3553 91.9398 18.079C91.6668 17.8026 91.5302 17.472 91.5302 17.0872C91.5302 16.7023 91.6668 16.3717 91.9398 16.0954C92.2128 15.8191 92.5391 15.6809 92.9194 15.6809H94.8206V12.7204ZM113.273 15.4145C114.57 15.4145 115.759 15.7402 116.841 16.3914C117.924 17.0428 118.791 17.9211 119.445 19.0263C120.108 20.1217 120.439 21.3405 120.439 22.6826C120.439 22.9589 120.424 23.2402 120.395 23.5263C120.356 23.8914 120.191 24.2023 119.898 24.4589C119.615 24.7056 119.294 24.829 118.933 24.829L108.711 24.8438C108.877 25.5543 109.188 26.2204 109.647 26.8421C110.105 27.4638 110.661 27.9671 111.314 28.352C111.977 28.7369 112.698 28.9293 113.478 28.9293C114.316 28.9293 115.067 28.722 115.73 28.3076C116.393 27.8931 116.91 27.4145 117.28 26.8717C117.397 26.6842 117.573 26.5263 117.807 26.3981C118.05 26.2697 118.28 26.2056 118.494 26.2056C118.894 26.2056 119.235 26.3536 119.518 26.6497C119.81 26.9457 119.957 27.2961 119.957 27.7007C119.957 28.0165 119.869 28.2977 119.693 28.5444C119.089 29.4425 118.255 30.222 117.192 30.8832C116.14 31.5346 114.916 31.8603 113.522 31.8603C112.401 31.8603 111.358 31.6383 110.392 31.1941C109.437 30.75 108.604 30.1431 107.892 29.3734C107.18 28.6036 106.624 27.7204 106.225 26.7237C105.835 25.7171 105.64 24.6563 105.64 23.5411C105.64 22.4655 105.835 21.4441 106.225 20.477C106.615 19.5 107.156 18.6316 107.848 17.8717C108.55 17.1119 109.364 16.5148 110.29 16.0806C111.216 15.6365 112.211 15.4145 113.273 15.4145ZM117.426 21.8684C117.241 20.9013 116.764 20.0773 115.993 19.3964C115.223 18.7155 114.316 18.375 113.273 18.375C112.211 18.375 111.27 18.7253 110.451 19.426C109.642 20.1267 109.096 20.9457 108.813 21.8832L117.426 21.8684ZM145.456 17.2352C145.456 18.0247 145.08 18.4638 144.329 18.5526C144.056 18.5823 143.71 18.4934 143.291 18.2862C142.872 18.0691 142.448 17.9605 142.019 17.9605C141.171 17.9605 140.498 18.1826 140.001 18.6267C139.504 19.0609 139.148 19.6481 138.933 20.3882C138.719 21.1283 138.612 21.9572 138.612 22.875V30.5132C138.612 30.9474 138.48 31.2928 138.217 31.5493C137.963 31.806 137.607 31.9342 137.149 31.9342C136.701 31.9342 136.345 31.806 136.082 31.5493C135.818 31.2928 135.687 30.9425 135.687 30.4984V16.8651C135.687 16.4211 135.794 16.0559 136.008 15.7697C136.233 15.4835 136.535 15.3405 136.915 15.3405C137.139 15.3405 137.398 15.4391 137.69 15.6365C137.993 15.824 138.202 16.1497 138.319 16.6135L138.465 17.6793C138.592 17.403 138.836 17.0823 139.197 16.7171C139.557 16.352 139.986 16.0362 140.483 15.7697C140.981 15.4934 141.497 15.3553 142.034 15.3553C143.028 15.3553 143.847 15.4737 144.49 15.7105C145.134 15.9375 145.456 16.4457 145.456 17.2352ZM156.231 15.3701C157.352 15.3701 158.395 15.5872 159.36 16.0214C160.335 16.4556 161.188 17.0576 161.919 17.8273C162.651 18.597 163.221 19.4803 163.631 20.477C164.05 21.4737 164.259 22.5346 164.259 23.6596C164.259 24.7648 164.05 25.8158 163.631 26.8125C163.211 27.7993 162.631 28.6727 161.89 29.4326C161.159 30.1826 160.306 30.7747 159.331 31.2089C158.366 31.6431 157.332 31.8603 156.231 31.8603C155.139 31.8603 154.105 31.6481 153.131 31.2237C152.166 30.7993 151.312 30.2122 150.571 29.4622C149.84 28.7122 149.265 27.8438 148.846 26.8569C148.427 25.8602 148.217 24.7944 148.217 23.6596C148.217 22.5346 148.427 21.4737 148.846 20.477C149.265 19.4803 149.84 18.602 150.571 17.8421C151.312 17.0724 152.166 16.4704 153.131 16.0362C154.096 15.5921 155.129 15.3701 156.231 15.3701ZM151.171 23.6891C151.171 24.6464 151.4 25.5197 151.858 26.3092C152.326 27.0888 152.945 27.7105 153.715 28.1744C154.486 28.6382 155.329 28.8701 156.246 28.8701C157.181 28.8701 158.03 28.6332 158.79 28.1596C159.56 27.676 160.17 27.0395 160.618 26.25C161.076 25.4605 161.305 24.597 161.305 23.6596C161.305 22.7023 161.081 21.824 160.633 21.0247C160.184 20.2155 159.575 19.5691 158.805 19.0855C158.044 18.602 157.186 18.3602 156.231 18.3602C155.266 18.3602 154.403 18.6069 153.642 19.1003C152.882 19.5839 152.278 20.2303 151.829 21.0395C151.39 21.8388 151.171 22.722 151.171 23.6891ZM176.175 15.3405C177.57 15.3405 178.832 15.6513 179.963 16.273C181.104 16.8849 181.947 17.7138 182.493 18.7599C182.61 18.9671 182.668 19.204 182.668 19.4704C182.668 19.875 182.522 20.2253 182.229 20.5214C181.947 20.8076 181.606 20.9507 181.206 20.9507C180.962 20.9507 180.709 20.8717 180.445 20.7138C180.192 20.5461 180.012 20.3536 179.904 20.1365C179.583 19.5247 179.1 19.0658 178.456 18.7599C177.813 18.454 177.048 18.301 176.161 18.301C175.644 18.301 175.059 18.3701 174.406 18.5082C173.753 18.6464 173.187 18.8684 172.71 19.1744C172.232 19.4803 171.993 19.8947 171.993 20.4178C171.993 20.8026 172.188 21.1086 172.578 21.3355C172.978 21.5526 173.465 21.7204 174.04 21.8388C174.625 21.9572 175.21 22.0461 175.795 22.1053C176.38 22.1546 176.858 22.199 177.228 22.2385C177.95 22.3175 178.661 22.4408 179.363 22.6086C180.065 22.7665 180.709 23.0033 181.294 23.3191C181.879 23.6349 182.342 24.0641 182.683 24.6069C183.034 25.1497 183.209 25.8405 183.209 26.6793C183.209 27.8734 182.868 28.8503 182.186 29.6102C181.503 30.3701 180.631 30.9326 179.568 31.2977C178.505 31.663 177.394 31.8455 176.234 31.8455C174.645 31.8455 173.197 31.5296 171.891 30.8981C170.594 30.2566 169.634 29.324 169.01 28.1003C168.893 27.8635 168.834 27.6316 168.834 27.4046C168.834 27 168.976 26.6546 169.258 26.3684C169.551 26.0724 169.897 25.9244 170.297 25.9244C170.55 25.9244 170.803 26.0082 171.057 26.176C171.32 26.3339 171.505 26.5263 171.613 26.7533C171.993 27.5033 172.578 28.0461 173.368 28.3816C174.167 28.7171 175.117 28.8849 176.219 28.8849C176.804 28.8849 177.409 28.8207 178.033 28.6925C178.666 28.5543 179.197 28.3224 179.626 27.9967C180.065 27.6711 180.285 27.227 180.285 26.6645C180.285 26.2303 180.094 25.9194 179.714 25.7319C179.344 25.5346 178.895 25.4063 178.369 25.347C177.852 25.2878 177.37 25.2335 176.921 25.1842C176.063 25.0954 175.176 24.9819 174.259 24.8438C173.343 24.6957 172.49 24.4638 171.7 24.1481C170.92 23.8323 170.287 23.3783 169.799 22.7862C169.312 22.1941 169.068 21.4046 169.068 20.4178C169.068 19.5296 169.278 18.7648 169.697 18.1234C170.126 17.4819 170.691 16.9589 171.393 16.5543C172.095 16.1398 172.861 15.8339 173.689 15.6365C174.528 15.4391 175.356 15.3405 176.175 15.3405Z" fill="white"/>
</svg>
